<?xml version="1.0" standalone="no"?>
<!DOCTYPE svg PUBLIC "-//W3C//DTD SVG 20010904//EN"
 "https://www.w3.org/TR/2001/REC-SVG-20010904/DTD/svg10.dtd">
<svg version="1.0" xmlns="https://www.w3.org/2000/svg"
 width="16.000000pt" height="16.000000pt" viewBox="0 0 16.000000 16.000000"
 preserveAspectRatio="xMidYMid meet">
<metadata>
Created by potrace 1.11, written by Peter Selinger 2001-2013
</metadata>
<g transform="translate(0.000000,16.000000) scale(0.006154,-0.006154)"
fill="#000000" stroke="none">
<path d="M915 2569 c-3 -3 -31 -150 -64 -325 -33 -175 -83 -440 -111 -589 -29
-148 -54 -283 -56 -300 -6 -32 -42 -228 -49 -258 -3 -17 9 -18 246 -15 216 3
249 1 250 -12 5 -114 68 -194 264 -340 141 -105 178 -141 208 -209 28 -65 20
-160 -22 -246 -56 -113 -147 -165 -281 -161 -167 5 -231 95 -197 273 8 40 12
75 9 78 -3 3 -29 5 -58 5 -49 0 -53 -2 -58 -27 -4 -16 -9 -39 -12 -53 -3 -14
-6 -60 -6 -103 -1 -143 65 -228 203 -263 119 -31 287 -3 382 63 150 104 226
348 153 496 -34 70 -77 112 -232 228 -73 54 -144 113 -158 130 -64 76 -91 179
-51 201 79 45 169 181 174 265 2 25 150 35 215 13 66 -21 120 -114 110 -190
-2 -14 -5 -44 -8 -68 l-5 -42 58 0 59 0 7 66 c21 195 -48 306 -211 339 -29 6
-162 8 -186 3 -7 -2 -12 3 -10 11 2 8 6 42 9 76 11 114 -34 197 -129 239 l-52
23 54 18 c82 27 152 102 179 190 12 37 23 80 26 94 2 14 9 48 14 75 14 73 8
156 -14 201 -26 53 -98 101 -167 111 -65 9 -478 12 -483 3z m470 -111 c80 -42
91 -95 59 -268 -26 -144 -63 -203 -153 -243 -39 -18 -72 -22 -213 -25 -158 -4
-166 -3 -163 14 5 22 32 166 70 369 14 77 28 148 31 157 4 15 23 16 172 14
129 -2 174 -6 197 -18z m-191 -642 c104 -13 167 -73 171 -164 2 -41 -17 -170
-27 -176 -83 -55 -155 -148 -178 -231 -7 -26 -21 -50 -33 -56 -19 -11 -319
-20 -343 -12 -8 3 -9 16 -4 41 5 20 11 53 14 72 3 19 16 91 29 160 14 69 35
180 47 247 22 117 24 122 49 125 41 5 218 1 275 -6z m146 -470 c0 -15 -18 -43
-45 -73 -44 -47 -54 -48 -36 0 9 23 68 97 77 97 2 0 4 -11 4 -24z"/>
<path d="M1540 2543 c0 -15 37 -33 128 -62 420 -132 732 -474 833 -910 24
-101 33 -330 18 -434 -43 -293 -209 -589 -435 -772 -110 -90 -244 -167 -354
-206 -69 -23 -121 -59 -87 -59 10 0 59 16 110 36 322 124 578 373 711 691 34
82 73 217 83 290 14 102 8 350 -11 438 -96 450 -406 801 -836 948 -81 28 -160
48 -160 40z"/>
<path d="M770 2454 c-268 -125 -506 -369 -624 -641 -77 -176 -105 -325 -101
-533 3 -194 33 -326 112 -500 66 -145 198 -318 334 -436 117 -102 295 -197
469 -248 l55 -16 -25 23 c-14 13 -61 36 -105 51 -93 32 -225 101 -304 159 -94
68 -244 226 -305 320 -144 220 -208 442 -201 702 3 145 6 170 31 269 66 260
190 457 409 651 50 45 190 134 262 167 64 30 82 43 83 61 0 11 -10 8 -90 -29z"/>
</g>
</svg>
